<svg width="180" height="168" viewBox="0 0 180 168" fill="none" xmlns="http://www.w3.org/2000/svg">
<path d="M155.492 145.237C159.853 138.109 164.167 130.126 168.365 122.284L169.723 87.8208C160.057 99.4058 148.993 117.168 138.885 133.396L137.385 135.796C139.277 137.09 141.228 138.347 143.203 139.519L151.37 127.619L155.381 130.373L147.481 141.885C150.186 143.28 152.892 144.438 155.492 145.237ZM155.328 121.867L161.157 113.376L162.115 120.576L159.338 124.62L155.328 121.867Z" fill="white"/>
<path d="M91.7669 52.6428C78.7279 68.2678 68.2669 87.7958 62.1959 99.1318C61.8213 99.8311 61.4653 100.495 61.1279 101.123C64.1279 103.468 67.6829 105.847 71.6189 108.095C74.2379 103.975 76.9379 99.6428 79.7869 95.0678C86.9529 83.5628 94.5869 71.3008 101.977 60.8738C98.6419 58.0168 95.0269 55.1048 91.7669 52.6428Z" fill="white"/>
<path d="M105.573 109.529C103.56 112.762 101.624 115.867 99.731 118.876C103.583 119.64 107.457 120.099 111.269 120.153L113.592 116.427C120.756 104.927 128.392 92.6628 135.779 82.2358C133.121 79.9588 130.288 77.6488 127.595 75.5588C120.33 85.8368 112.713 98.0658 105.573 109.529Z" fill="white"/>
<path d="M179.992 134.485L171.892 126.005C168.185 132.919 164.392 139.905 160.53 146.315L160.6 146.324L156.266 161.852L150.643 165.978C150.47 166.104 150.342 166.281 150.277 166.485C150.211 166.688 150.212 166.907 150.278 167.11C150.345 167.313 150.474 167.49 150.647 167.615C150.821 167.74 151.029 167.807 151.243 167.807H167.443C168.557 167.807 169.654 167.53 170.635 167.001C171.616 166.472 172.45 165.707 173.062 164.776L178.02 157.233L168.062 155.395L179.992 134.485Z" fill="white"/>
<path d="M15.619 48.2249L16.704 50.6329L16.292 56.0479L25.282 50.3069L18.044 59.1369C19.415 62.5369 21.877 64.5949 25.365 65.7369L25.64 65.5069L26.271 64.4709C32.271 54.6149 48.819 27.4199 66.925 12.5349C62.269 8.41687 49.354 -1.95113 39.692 0.321867C31.504 2.24387 30.765 9.08787 27.292 14.6439C26.092 16.5699 16.582 26.3189 16.582 32.6969L13.454 37.0309L17.122 43.3509L15.619 48.2249Z" fill="white"/>
<path d="M57.28 98.0047L57.907 96.8327C64.898 83.7817 77.573 60.1177 93.58 43.3067L94.672 26.9747C87.6318 22.5366 80.2009 18.7508 72.472 15.6647L71.359 15.2217C60.793 23.4877 48.817 38.0477 35.613 58.6957L10.213 105.157C3.71297 124.295 -1.99803 144.785 0.672969 162.415C0.900724 163.917 1.65958 165.288 2.81182 166.279C3.96407 167.27 5.43333 167.815 6.95297 167.815H21.197L29.856 159.156L38.556 129.956L57.28 98.0047ZM20.607 143.993L15.807 143.201C17.66 131.963 25.047 113.324 35.569 93.3397C47.131 71.3827 60.369 51.6767 72.855 37.8517L76.466 41.1117C48.86 71.6857 23.938 123.788 20.607 143.993Z" fill="white"/>
<path d="M144.88 85.6787L120.768 122.673C122.894 124.573 125.993 127.246 129.659 130.12L153.874 92.7597L157.834 95.3817C161.371 90.4457 164.844 85.9547 168.171 82.2027L165.764 77.1167C163.581 72.5074 160.485 68.389 156.664 65.0107C152.253 68.7277 147.297 74.6427 142.107 81.7427L144.88 85.6787Z" fill="white"/>
<path d="M115.936 43.5047C113.459 41.1513 110.9 38.8973 108.259 36.7427C103.624 40.0877 99.172 44.2827 94.959 48.9587C98.129 51.3587 101.599 54.1587 104.834 56.9167C108.665 51.7227 112.4 47.1297 115.936 43.5047Z" fill="white"/>
<path d="M138.636 78.2807C143.574 71.5807 148.352 65.8897 152.75 61.9807C149.652 59.8875 146.26 58.2665 142.686 57.1707C138.894 60.7507 134.752 65.7617 130.443 71.6107C133.135 73.6967 135.965 76.0047 138.636 78.2807Z" fill="white"/>
<path d="M75.9089 110.414C81.7029 113.366 88.1199 115.944 94.7189 117.708C96.8859 114.275 99.1189 110.694 101.444 106.957C105.293 100.777 109.279 94.3798 113.288 88.1638L107.936 84.5638L104.92 82.5158L100.547 88.9548L102.869 90.5308L93.6469 104.95L89.5469 102.329L115.338 62.0048L119.438 64.6258L109.685 79.8738L115.943 84.0868C123.343 72.8188 130.734 62.4738 137.421 55.5708L124.129 51.5338L119.408 46.8818C108.762 57.7588 95.6909 78.7388 83.9189 97.6408C81.1279 102.117 78.4819 106.362 75.9089 110.414Z" fill="white"/>
<path d="M137.604 150.141L150.348 156.741L153.918 150.341C147.15 148.261 140.018 144.162 133.667 139.779L125.867 155.739L137.731 161.477L134.292 163.438L124.477 158.691L120.044 167.81H143.537C143.807 167.521 146.945 162.547 147.474 161.661L148.674 159.546L136.102 153.031L137.604 150.141Z" fill="white"/>
<path d="M119.185 158.45L123.645 149.275L114.201 144.913L116.241 140.496L125.772 144.896L129.656 136.906C124.833 133.307 120.2 129.462 115.774 125.385C114.545 125.466 113.294 125.508 112.034 125.508H112.017L91.455 167.808H114.635L117.058 162.824L108.353 158.805L110.393 154.388L119.185 158.45Z" fill="white"/>
<path d="M106.72 125.278C103.341 124.979 99.9861 124.454 96.6779 123.705L96.2779 123.617C92.6105 122.77 88.9977 121.703 85.4589 120.422L62.4219 167.813H76.4219L88.6319 147.186H96.0639L106.72 125.278ZM91.7039 136.662L86.6479 134.862L89.0169 130.629L94.0729 132.429L91.7039 136.662Z" fill="white"/>
<path d="M58.755 106.07L43.492 132.105C43.492 132.105 36.966 153.267 33.992 163.082C33.247 165.543 32.725 167.292 32.585 167.815H41.919L53.628 141.958L58.059 143.964L47.259 167.815H57.011L80.911 118.658C72.565 115.187 64.875 110.736 58.755 106.07ZM56.938 134.656L60.802 126.124L65.233 128.131L61.37 136.662L56.938 134.656Z" fill="white"/>
</svg>
